<mxfile host="app.diagrams.net" modified="2022-06-21T17:21:57.713Z" agent="5.0 (X11; Linux x86_64) AppleWebKit/537.36 (KHTML, like Gecko) Chrome/101.0.0.0 Safari/537.36" etag="IRJDd-Ys4YwTTli5mZ-9" version="20.0.1" type="github">
  <diagram id="JcB4AoaDVqTouLbzVeP7" name="Page-1">
    <mxGraphModel dx="1422" dy="696" grid="1" gridSize="10" guides="1" tooltips="1" connect="1" arrows="1" fold="1" page="1" pageScale="1" pageWidth="827" pageHeight="1169" math="0" shadow="0">
      <root>
        <mxCell id="0" />
        <mxCell id="1" parent="0" />
        <mxCell id="Qhy2KA7j3H3ordiq1Cgs-2" value="&lt;font style=&quot;font-size: 18px;&quot;&gt;&lt;u&gt;:Sistema&lt;/u&gt;&lt;/font&gt;" style="rounded=0;whiteSpace=wrap;html=1;fillColor=#FFD966;" vertex="1" parent="1">
          <mxGeometry x="120" y="360" width="120" height="60" as="geometry" />
        </mxCell>
        <mxCell id="Qhy2KA7j3H3ordiq1Cgs-3" value="&lt;font style=&quot;font-size: 18px;&quot;&gt;&lt;u&gt;:MgrReserva&lt;/u&gt;&lt;/font&gt;" style="rounded=0;whiteSpace=wrap;html=1;fillColor=#FFD966;" vertex="1" parent="1">
          <mxGeometry x="570" y="360" width="120" height="60" as="geometry" />
        </mxCell>
        <mxCell id="Qhy2KA7j3H3ordiq1Cgs-4" value="&lt;font style=&quot;font-size: 18px;&quot;&gt;&lt;u&gt;:DaoReserva&lt;/u&gt;&lt;/font&gt;" style="rounded=0;whiteSpace=wrap;html=1;fillColor=#FFD966;" vertex="1" parent="1">
          <mxGeometry x="570" y="536.5" width="120" height="60" as="geometry" />
        </mxCell>
        <mxCell id="Qhy2KA7j3H3ordiq1Cgs-5" value="" style="endArrow=none;html=1;rounded=0;fontSize=18;exitX=0.5;exitY=0;exitDx=0;exitDy=0;" edge="1" parent="1" source="Qhy2KA7j3H3ordiq1Cgs-2">
          <mxGeometry width="50" height="50" relative="1" as="geometry">
            <mxPoint x="170" y="330" as="sourcePoint" />
            <mxPoint x="180" y="270" as="targetPoint" />
          </mxGeometry>
        </mxCell>
        <mxCell id="Qhy2KA7j3H3ordiq1Cgs-6" value="getValor()" style="text;html=1;strokeColor=none;fillColor=none;align=center;verticalAlign=middle;whiteSpace=wrap;rounded=0;fontSize=18;" vertex="1" parent="1">
          <mxGeometry x="80" y="300" width="90" height="30" as="geometry" />
        </mxCell>
        <mxCell id="Qhy2KA7j3H3ordiq1Cgs-7" value="" style="endArrow=none;html=1;rounded=0;fontSize=18;exitX=1;exitY=0.5;exitDx=0;exitDy=0;entryX=0;entryY=0.5;entryDx=0;entryDy=0;" edge="1" parent="1" source="Qhy2KA7j3H3ordiq1Cgs-2" target="Qhy2KA7j3H3ordiq1Cgs-3">
          <mxGeometry width="50" height="50" relative="1" as="geometry">
            <mxPoint x="380" y="420" as="sourcePoint" />
            <mxPoint x="380" y="330" as="targetPoint" />
          </mxGeometry>
        </mxCell>
        <mxCell id="Qhy2KA7j3H3ordiq1Cgs-8" value="" style="endArrow=none;html=1;rounded=0;fontSize=18;entryX=0.118;entryY=-0.002;entryDx=0;entryDy=0;entryPerimeter=0;" edge="1" parent="1" target="Qhy2KA7j3H3ordiq1Cgs-4">
          <mxGeometry width="50" height="50" relative="1" as="geometry">
            <mxPoint x="584" y="420" as="sourcePoint" />
            <mxPoint x="610" y="710" as="targetPoint" />
          </mxGeometry>
        </mxCell>
        <mxCell id="Qhy2KA7j3H3ordiq1Cgs-10" value="1.1: &lt;br&gt;pagar(Reserva &amp;amp;, valor)" style="text;html=1;strokeColor=none;fillColor=none;align=center;verticalAlign=middle;whiteSpace=wrap;rounded=0;fontSize=18;" vertex="1" parent="1">
          <mxGeometry x="590" y="429" width="201" height="44" as="geometry" />
        </mxCell>
        <mxCell id="Qhy2KA7j3H3ordiq1Cgs-11" value="1.2: confirmaçãoPagamento()" style="text;html=1;strokeColor=none;fillColor=none;align=center;verticalAlign=middle;whiteSpace=wrap;rounded=0;fontSize=18;" vertex="1" parent="1">
          <mxGeometry x="300" y="400" width="249" height="40" as="geometry" />
        </mxCell>
        <mxCell id="Qhy2KA7j3H3ordiq1Cgs-12" value="" style="endArrow=classic;html=1;rounded=0;fontSize=18;" edge="1" parent="1">
          <mxGeometry width="50" height="50" relative="1" as="geometry">
            <mxPoint x="170" y="294" as="sourcePoint" />
            <mxPoint x="170" y="334" as="targetPoint" />
          </mxGeometry>
        </mxCell>
        <mxCell id="Qhy2KA7j3H3ordiq1Cgs-14" value="" style="endArrow=none;html=1;rounded=0;fontSize=18;startArrow=classic;startFill=1;endFill=0;" edge="1" parent="1">
          <mxGeometry width="50" height="50" relative="1" as="geometry">
            <mxPoint x="251" y="420" as="sourcePoint" />
            <mxPoint x="291" y="420" as="targetPoint" />
          </mxGeometry>
        </mxCell>
        <mxCell id="Qhy2KA7j3H3ordiq1Cgs-15" value="" style="endArrow=classic;html=1;rounded=0;fontSize=18;" edge="1" parent="1">
          <mxGeometry width="50" height="50" relative="1" as="geometry">
            <mxPoint x="800" y="430" as="sourcePoint" />
            <mxPoint x="800" y="470" as="targetPoint" />
          </mxGeometry>
        </mxCell>
        <mxCell id="Qhy2KA7j3H3ordiq1Cgs-16" value="" style="endArrow=none;html=1;rounded=0;fontSize=18;startArrow=classic;startFill=1;endFill=0;" edge="1" parent="1">
          <mxGeometry width="50" height="50" relative="1" as="geometry">
            <mxPoint x="800" y="485.5" as="sourcePoint" />
            <mxPoint x="800" y="525.5" as="targetPoint" />
          </mxGeometry>
        </mxCell>
        <mxCell id="Qhy2KA7j3H3ordiq1Cgs-17" value="1: pagarReserva(Reserva &amp;amp;, valor)" style="text;html=1;strokeColor=none;fillColor=none;align=center;verticalAlign=middle;whiteSpace=wrap;rounded=0;fontSize=18;" vertex="1" parent="1">
          <mxGeometry x="245.5" y="340" width="287" height="30" as="geometry" />
        </mxCell>
        <mxCell id="Qhy2KA7j3H3ordiq1Cgs-18" value="" style="endArrow=classic;html=1;rounded=0;fontSize=18;" edge="1" parent="1">
          <mxGeometry width="50" height="50" relative="1" as="geometry">
            <mxPoint x="519" y="380" as="sourcePoint" />
            <mxPoint x="559" y="380" as="targetPoint" />
          </mxGeometry>
        </mxCell>
        <mxCell id="Qhy2KA7j3H3ordiq1Cgs-23" value="1.1.1: &lt;br&gt;update(Reserva &amp;amp;, valor)" style="text;html=1;strokeColor=none;fillColor=none;align=center;verticalAlign=middle;whiteSpace=wrap;rounded=0;fontSize=18;" vertex="1" parent="1">
          <mxGeometry x="586" y="487.25" width="209" height="38.5" as="geometry" />
        </mxCell>
      </root>
    </mxGraphModel>
  </diagram>
</mxfile>
